<?xml version="1.0" encoding="UTF-8"?>
<svg xmlns="http://www.w3.org/2000/svg" xmlns:xlink="http://www.w3.org/1999/xlink"
     width="380.0" height="200" viewBox="-190.0 -100.0 380.0 200">
<defs>
</defs>
<path d="M0,0 L-13.397459621556134,50.0 L-50.0,50.0 L-50.0,13.397459621556134 Z" fill="rgb(40, 40, 40)" stroke="rgb(0, 0, 0)" stroke-width="1" transform="translate(-90.0, 0) rotate(0)" />
<path d="M0,0 L-13.397459621556134,50.0 L-36.60254037844386,36.60254037844387 Z" fill="rgb(255, 255, 255)" stroke="rgb(0, 0, 0)" stroke-width="1" transform="translate(-90.0, 0) rotate(60)" />
<path d="M0,0 L-13.397459621556134,50.0 L-50.0,50.0 L-50.0,13.397459621556134 Z" fill="rgb(40, 40, 40)" stroke="rgb(0, 0, 0)" stroke-width="1" transform="translate(-90.0, 0) rotate(90)" />
<path d="M0,0 L-13.397459621556134,50.0 L-36.60254037844386,36.60254037844387 Z" fill="rgb(40, 40, 40)" stroke="rgb(0, 0, 0)" stroke-width="1" transform="translate(-90.0, 0) rotate(150)" />
<path d="M0,0 L-13.397459621556134,50.0 L-50.0,50.0 L-50.0,13.397459621556134 Z" fill="rgb(255, 255, 255)" stroke="rgb(0, 0, 0)" stroke-width="1" transform="translate(-90.0, 0) rotate(180)" />
<path d="M0,0 L-13.397459621556134,50.0 L-36.60254037844386,36.60254037844387 Z" fill="rgb(40, 40, 40)" stroke="rgb(0, 0, 0)" stroke-width="1" transform="translate(-90.0, 0) rotate(240)" />
<path d="M0,0 L-13.397459621556134,50.0 L-50.0,50.0 L-50.0,13.397459621556134 Z" fill="rgb(255, 255, 255)" stroke="rgb(0, 0, 0)" stroke-width="1" transform="translate(-90.0, 0) rotate(270)" />
<path d="M0,0 L-13.397459621556134,50.0 L-36.60254037844386,36.60254037844387 Z" fill="rgb(255, 255, 255)" stroke="rgb(0, 0, 0)" stroke-width="1" transform="translate(-90.0, 0) rotate(330)" />
<path d="M0,0 L-13.397459621556134,50.0 L-50.0,50.0 L-50.0,13.397459621556134 Z" fill="rgb(40, 40, 40)" stroke="rgb(0, 0, 0)" stroke-width="1" transform="translate(90.0, 0) rotate(150)" />
<path d="M0,0 L-13.397459621556134,50.0 L-36.60254037844386,36.60254037844387 Z" fill="rgb(255, 255, 255)" stroke="rgb(0, 0, 0)" stroke-width="1" transform="translate(90.0, 0) rotate(210)" />
<path d="M0,0 L-13.397459621556134,50.0 L-50.0,50.0 L-50.0,13.397459621556134 Z" fill="rgb(40, 40, 40)" stroke="rgb(0, 0, 0)" stroke-width="1" transform="translate(90.0, 0) rotate(240)" />
<path d="M0,0 L-13.397459621556134,50.0 L-36.60254037844386,36.60254037844387 Z" fill="rgb(40, 40, 40)" stroke="rgb(0, 0, 0)" stroke-width="1" transform="translate(90.0, 0) rotate(300)" />
<path d="M0,0 L-13.397459621556134,50.0 L-50.0,50.0 L-50.0,13.397459621556134 Z" fill="rgb(255, 255, 255)" stroke="rgb(0, 0, 0)" stroke-width="1" transform="translate(90.0, 0) rotate(330)" />
<path d="M0,0 L-13.397459621556134,50.0 L-36.60254037844386,36.60254037844387 Z" fill="rgb(40, 40, 40)" stroke="rgb(0, 0, 0)" stroke-width="1" transform="translate(90.0, 0) rotate(390)" />
<path d="M0,0 L-13.397459621556134,50.0 L-50.0,50.0 L-50.0,13.397459621556134 Z" fill="rgb(255, 255, 255)" stroke="rgb(0, 0, 0)" stroke-width="1" transform="translate(90.0, 0) rotate(420)" />
<path d="M0,0 L-13.397459621556134,50.0 L-36.60254037844386,36.60254037844387 Z" fill="rgb(255, 255, 255)" stroke="rgb(0, 0, 0)" stroke-width="1" transform="translate(90.0, 0) rotate(480)" />
</svg>